<?xml version="1.0" standalone="no"?>
<svg viewBox="0 0 200 200" xmlns="http://www.w3.org/2000/svg">
  <path fill="#FF0066" d="M51.6,-65.1C66.1,-60.6,76.5,-44.4,79.2,-27.8C81.8,-11.1,76.6,6,70.1,21.7C63.5,37.4,55.7,51.6,43.8,60.7C31.9,69.7,15.9,73.6,-1.6,75.8C-19.2,78,-38.4,78.6,-52.7,70.4C-67.1,62.1,-76.7,45.1,-82.4,26.9C-88.1,8.8,-89.8,-10.5,-79.2,-20.3C-68.6,-30.2,-45.6,-30.7,-30.3,-34.9C-15.1,-39.2,-7.5,-47.2,5.5,-54.8C18.6,-62.4,37.2,-69.6,51.6,-65.1Z" transform="translate(100 100)" />
</svg>
